Coordinates
version=1
nRows=11
nColumns=36
inDegrees=yes

Units are S.I. units (second, meters, Newtons, ...)
Angles are in degrees.

endheader
time	pelvis_tilt	pelvis_list	pelvis_rotation	pelvis_tx	pelvis_ty	pelvis_tz	hip_flexion_r	hip_adduction_r	hip_rotation_r	knee_angle_r	ankle_angle_r	subtalar_angle_r	hip_flexion_l	hip_adduction_l	hip_rotation_l	knee_angle_l	ankle_angle_l	subtalar_angle_l	lumbar_extension	lumbar_bending	lumbar_rotation	arm_flex_r	arm_add_r	arm_rot_r	elbow_flex_r	pro_sup_r	wrist_flex_r	wrist_dev_r	arm_flex_l	arm_add_l	arm_rot_l	elbow_flex_l	pro_sup_l	wrist_flex_l	wrist_dev_l
      1.70000000	     -1.34338208	      3.65336429	     -1.56109508	      0.55249693	      0.92286921	      0.21825438	     27.29121037	     -2.15485237	     -0.82215690	    -56.11118552	      0.20550312	     -7.33285672	      4.57833570	      8.06139500	      3.95048748	    -19.09267553	     11.31157082	     -0.13518151	     -5.02668737	     -2.49120891	     -4.89914665	     -2.64470230	    -16.68195160	     15.23264010	     17.83462045	     86.51662706	      0.00000000	      0.00000000	      2.56564106	    -17.72492986	     19.98819653	     27.25957513	     86.51662706	      0.00000000	      0.00000000
      1.71000000	     -1.29472432	      3.51217157	     -1.33562972	      0.56540129	      0.92288439	      0.21844928	     27.84794109	     -2.21533560	     -1.23927742	    -53.15282351	      0.59903547	     -7.71444463	      3.15950301	      7.90762118	      4.26239959	    -18.28091928	     11.63412239	     -0.16509444	     -5.16735756	     -2.28089015	     -5.40410605	     -2.93588160	    -16.64054299	     14.91693251	     17.24996443	     86.51662706	      0.00000000	      0.00000000	      2.94759558	    -18.08618655	     19.31507320	     29.12555671	     86.51662706	      0.00000000	      0.00000000
      1.72000000	     -1.21300846	      3.41896552	     -1.12535318	      0.57836835	      0.92271084	      0.21872807	     28.24876043	     -2.31597368	     -1.63848415	    -49.93486115	      0.89828194	     -8.13425150	      1.69896675	      7.77827510	      4.51073247	    -17.45656317	     11.94808393	     -0.11057871	     -5.34103968	     -2.13170076	     -5.87332327	     -3.20803549	    -16.57883409	     14.62160010	     16.64032331	     86.51662706	      0.00000000	      0.00000000	      3.31576562	    -18.45004710	     18.64375628	     30.98717757	     86.51662706	      0.00000000	      0.00000000
      1.73000000	     -1.10194428	      3.36838026	     -0.92268545	      0.59143124	      0.92236050	      0.21910028	     28.49792340	     -2.45267054	     -2.03661455	    -46.47736974	      1.13922132	     -8.47554235	      0.20171214	      7.67114339	      4.71484507	    -16.62302066	     12.24152447	      0.01714675	     -5.54191742	     -2.03737616	     -6.31089333	     -3.46370965	    -16.49620107	     14.35572477	     16.00974113	     86.51662706	      0.00000000	      0.00000000	      3.67002700	    -18.80873605	     17.97954797	     32.82542816	     86.51662706	      0.00000000	      0.00000000
      1.74000000	     -0.96830111	      3.35022904	     -0.71993924	      0.60462148	      0.92183368	      0.21956528	     28.60549095	     -2.61917142	     -2.45830285	    -42.80939302	      1.35451773	     -8.62301687	     -1.32104914	      7.57792940	      4.89177706	    -15.79129578	     12.50347065	      0.20613412	     -5.75992174	     -1.98689199	     -6.72255865	     -3.70637985	    -16.39402995	     14.12335706	     15.36524134	     86.51662706	      0.00000000	      0.00000000	      4.00878311	    -19.15401337	     17.32748640	     34.62291909	     86.51662706	      0.00000000	      0.00000000
      1.75000000	     -0.82118718	      3.35118645	     -0.51211693	      0.61795650	      0.92114668	      0.22011188	     28.58717024	     -2.80635981	     -2.93195822	    -38.97341677	      1.57130501	     -8.47815515	     -2.85251775	      7.48519730	      5.05498492	    -14.97924146	     12.72632474	      0.44528456	     -5.98217744	     -1.96589359	     -7.11329852	     -3.93955297	    -16.27536924	     13.92441086	     14.71571761	     86.51662706	      0.00000000	      0.00000000	      4.32878754	    -19.47814627	     16.69176070	     36.36489382	     86.51662706	      0.00000000	      0.00000000
      1.76000000	     -0.67093113	      3.35726923	     -0.29792164	      0.63144279	      0.92033849	      0.22073274	     28.46390063	     -3.00164584	     -3.48435844	    -35.02909386	      1.81043675	     -7.97389971	     -4.37165314	      7.37706429	      5.21407479	    -14.21012030	     12.90687059	      0.72495109	     -6.19507183	     -1.95902863	     -7.48560465	     -4.16605238	    -16.14424757	     13.75590086	     14.07082795	     86.51662706	      0.00000000	      0.00000000	      4.62548966	    -19.77493144	     16.07536054	     38.03989036	     86.51662706	      0.00000000	      0.00000000
      1.77000000	     -0.52722316	      3.35668124	     -0.07906145	      0.64508347	      0.91944724	      0.22142713	     28.26152220	     -3.18850609	     -4.13450601	    -31.05528545	      2.08665225	     -7.08609074	     -5.85496353	      7.23907404	      5.37527748	    -13.51051739	     13.04570430	      1.03681551	     -6.38637985	     -1.95256715	     -7.83890575	     -4.38754112	    -16.00484709	     13.61336093	     13.44000962	     86.51662706	      0.00000000	      0.00000000	      4.89376188	    -20.04047948	     15.47997368	     39.63996384	     86.51662706	      0.00000000	      0.00000000
      1.78000000	     -0.39724451	      3.34168632	      0.14104912	      0.65887610	      0.91847948	      0.22219696	     28.01013319	     -3.34762994	     -4.88755942	    -27.14990859	      2.40885764	     -5.83931087	     -7.27861698	      7.06169416	      5.54246401	    -12.90785991	     13.14567087	      1.37345230	     -6.54694959	     -1.93641593	     -8.17026522	     -4.60431943	    -15.86080063	     13.49226535	     12.83169339	     86.51662706	      0.00000000	      0.00000000	      5.12875094	    -20.27343357	     14.90609688	     41.16043904	     86.51662706	      0.00000000	      0.00000000
      1.79000000	     -0.28486345	      3.30853162	      0.35841272	      0.67280954	      0.91741539	      0.22305484	     27.74262185	     -3.46054784	     -5.73008118	    -23.42703235	      2.77981662	     -4.30570969	     -8.62113562	      6.84198170	      5.71823899	    -12.42808436	     13.21021004	      1.72803752	     -6.67157736	     -1.90492626	     -8.47598873	     -4.81544797	    -15.71482806	     13.38928277	     12.25275526	     86.51662706	      0.00000000	      0.00000000	      5.32647691	    -20.47449408	     14.35330885	     42.59923442	     86.51662706	      0.00000000	      0.00000000
      1.80000000	     -0.19102664	      3.25636091	      0.56956904	      0.68686815	      0.91623906	      0.22402308	     27.49193858	     -3.51418712	     -6.62831844	    -20.01040537	      3.19500778	     -2.59682457	     -9.86627763	      6.58318204	      5.90442442	    -12.09372719	     13.24228171	      2.09457421	     -6.75888753	     -1.85651122	     -8.75340482	     -5.01925083	    -15.56881290	     13.30321935	     11.70820956	     86.51662706	      0.00000000	      0.00000000	      5.48382080	    -20.64548035	     13.82064874	     43.95587269	     86.51662706	      0.00000000	      0.00000000
